<svg width="16" height="17" viewBox="0 0 16 17" fill="none" xmlns="http://www.w3.org/2000/svg">
<path d="M7.99998 2.03174C5.41998 2.03174 3.33331 4.1184 3.33331 6.6984C3.33331 9.4784 6.27998 13.3117 7.49331 14.7717C7.75998 15.0917 8.24665 15.0917 8.51331 14.7717C9.71998 13.3117 12.6666 9.4784 12.6666 6.6984C12.6666 4.1184 10.58 2.03174 7.99998 2.03174ZM7.99998 8.36507C7.07998 8.36507 6.33331 7.6184 6.33331 6.6984C6.33331 5.7784 7.07998 5.03174 7.99998 5.03174C8.91998 5.03174 9.66665 5.7784 9.66665 6.6984C9.66665 7.6184 8.91998 8.36507 7.99998 8.36507Z" fill="white"/>
</svg>
