<svg width="16" height="17" viewBox="0 0 16 17" fill="none" xmlns="http://www.w3.org/2000/svg">
<path d="M13.3333 3.36475H2.66665C1.93331 3.36475 1.33998 3.96475 1.33998 4.69808L1.33331 12.6981C1.33331 13.4314 1.93331 14.0314 2.66665 14.0314H13.3333C14.0666 14.0314 14.6666 13.4314 14.6666 12.6981V4.69808C14.6666 3.96475 14.0666 3.36475 13.3333 3.36475ZM13.0666 6.19808L8.35331 9.14475C8.13998 9.27808 7.85998 9.27808 7.64665 9.14475L2.93331 6.19808C2.76665 6.09141 2.66665 5.91141 2.66665 5.71808C2.66665 5.27141 3.15331 5.00475 3.53331 5.23808L7.99998 8.03141L12.4666 5.23808C12.8466 5.00475 13.3333 5.27141 13.3333 5.71808C13.3333 5.91141 13.2333 6.09141 13.0666 6.19808Z" fill="white"/>
</svg>
