<svg width="16" height="17" viewBox="0 0 16 17" fill="none" xmlns="http://www.w3.org/2000/svg">
<path d="M12.82 10.8713L11.1267 10.6779C10.72 10.6313 10.32 10.7713 10.0334 11.0579L8.80669 12.2846C6.92003 11.3246 5.37336 9.78459 4.41336 7.89126L5.64669 6.65792C5.93336 6.37126 6.07336 5.97126 6.02669 5.56459L5.83336 3.88459C5.75336 3.21126 5.18669 2.70459 4.50669 2.70459H3.35336C2.60003 2.70459 1.97336 3.33126 2.02003 4.08459C2.37336 9.77792 6.92669 14.3246 12.6134 14.6779C13.3667 14.7246 13.9934 14.0979 13.9934 13.3446V12.1913C14 11.5179 13.4934 10.9513 12.82 10.8713Z" fill="white"/>
</svg>
