<svg width="48" height="48" viewBox="0 0 48 48" fill="none" xmlns="http://www.w3.org/2000/svg">
<path d="M23.9997 16.0002C19.5797 16.0002 15.9997 19.5802 15.9997 24.0002C15.9997 28.4202 19.5797 32.0002 23.9997 32.0002C28.4197 32.0002 31.9997 28.4202 31.9997 24.0002C31.9997 19.5802 28.4197 16.0002 23.9997 16.0002ZM41.8797 22.0002C40.9597 13.6602 34.3397 7.04024 25.9997 6.12024V4.00024C25.9997 2.90024 25.0997 2.00024 23.9997 2.00024C22.8997 2.00024 21.9997 2.90024 21.9997 4.00024V6.12024C13.6597 7.04024 7.03973 13.6602 6.11973 22.0002H3.99973C2.89973 22.0002 1.99973 22.9002 1.99973 24.0002C1.99973 25.1002 2.89973 26.0002 3.99973 26.0002H6.11973C7.03973 34.3402 13.6597 40.9603 21.9997 41.8802V44.0002C21.9997 45.1003 22.8997 46.0002 23.9997 46.0002C25.0997 46.0002 25.9997 45.1003 25.9997 44.0002V41.8802C34.3397 40.9603 40.9597 34.3402 41.8797 26.0002H43.9997C45.0997 26.0002 45.9997 25.1002 45.9997 24.0002C45.9997 22.9002 45.0997 22.0002 43.9997 22.0002H41.8797ZM23.9997 38.0002C16.2597 38.0002 9.99973 31.7402 9.99973 24.0002C9.99973 16.2602 16.2597 10.0002 23.9997 10.0002C31.7397 10.0002 37.9997 16.2602 37.9997 24.0002C37.9997 31.7402 31.7397 38.0002 23.9997 38.0002Z" fill="#800AAE"/>
</svg>
