<svg width="48" height="48" viewBox="0 0 48 48" fill="none" xmlns="http://www.w3.org/2000/svg">
<path d="M25.9999 7.74005V7.78005C25.9999 9.12005 26.8999 10.2401 28.1599 10.6401C33.8599 12.4201 37.9999 17.7201 37.9999 24.0001C37.9999 25.0401 37.8799 26.0201 37.6599 26.9801C37.3799 28.2601 37.8999 29.5801 39.0399 30.2601L39.0599 30.2801C40.7799 31.2801 43.0199 30.3801 43.4799 28.4601C43.8199 27.0201 43.9999 25.5201 43.9999 24.0001C43.9999 15.0001 38.0399 7.36005 29.8399 4.86005C27.9399 4.28005 25.9999 5.74005 25.9999 7.74005ZM21.8799 37.8401C15.8999 36.9801 11.0399 32.1201 10.1599 26.1601C9.07995 18.9601 13.4799 12.6201 19.8199 10.6401C21.0999 10.2601 21.9999 9.12005 21.9999 7.78005V7.74005C21.9999 5.74005 20.0599 4.28005 18.1399 4.86005C9.11995 7.62005 2.81995 16.5801 4.17995 26.7801C5.35995 35.5401 12.4399 42.6201 21.1999 43.8001C27.4799 44.6401 33.2799 42.5801 37.4599 38.7401C38.9399 37.3801 38.6799 34.9601 36.9399 33.9601C35.7799 33.2801 34.3399 33.5001 33.3399 34.4001C30.3999 37.0801 26.3199 38.5001 21.8799 37.8401Z" fill="#800AAE"/>
</svg>
