<svg width="120" height="60" viewBox="0 0 120 60" fill="none" xmlns="http://www.w3.org/2000/svg">
<path d="M16.591 30.9305C17.7205 28.6667 18.4338 26.6352 18.4933 25.2421C18.5527 23.791 18.1366 22.9784 17.0071 22.9784C15.8777 22.9784 14.5104 24.5456 13.1432 27.2156C11.7165 29.8276 10.5276 33.4264 9.75479 37.5475C8.982 41.3785 8.68477 44.8611 8.982 47.5312C9.21978 50.1432 10.052 51.7104 11.4787 51.7104C12.6676 51.7104 13.7971 50.4914 14.5104 48.7501C15.2238 46.9507 15.4616 44.8031 14.986 42.9457C14.9265 42.4813 15.7588 42.1911 16.8882 42.1911C18.0772 42.1911 19.5038 42.5394 20.6928 43.2939C21.9411 44.0485 22.8922 45.2674 22.8922 47.0668C23.0706 49.969 21.8222 53.0454 19.6227 55.3091C17.4233 57.5729 14.3915 59.1981 10.7654 59.1981C7.13919 59.1981 4.28581 57.2246 2.56189 53.6258C0.837971 50.0271 0.421853 44.8031 1.55132 38.2441C2.91856 30.8724 5.65306 25.4743 8.92256 21.8175C12.1921 18.1607 16.056 16.3613 19.5633 16.3613C22.2978 16.3613 24.3189 17.6964 25.5078 19.6699C26.6967 21.7014 27.0534 24.2554 26.3995 26.6932C25.7456 28.7248 24.4973 30.0598 22.9517 30.7563C21.4656 31.5109 19.7416 31.7431 18.4933 31.6851C17.3044 31.569 16.4127 31.3368 16.591 30.9305Z" fill="white"/>
<path d="M58.0249 56.7606C55.0526 56.2963 52.6748 54.7871 51.1292 52.4073C49.6431 50.1435 48.9297 47.0672 49.5836 43.5265C49.9998 40.8564 50.8914 38.8249 51.9615 37.2577C51.6642 37.2577 51.2481 37.3157 50.9509 37.3157C49.5836 37.3157 48.2758 37.2577 46.9086 37.1996C47.1464 38.7668 47.2058 40.3921 47.0275 42.3656C46.5519 46.835 44.7685 50.6079 42.0341 53.2199C39.4779 55.8319 36.0301 57.1669 32.5228 56.7026C29.61 56.2382 27.351 54.7871 25.9838 52.4073C24.5571 50.1435 24.0221 47.0092 24.5571 43.4684C25.0326 40.1019 26.6971 37.8381 28.5994 36.329C30.5016 34.8779 32.4633 34.2394 33.6522 34.2394C35.6734 34.2394 36.8029 35.2842 36.7434 36.4451C36.5651 36.6772 35.6139 37.2577 34.6628 38.2444C33.6522 39.2312 32.4633 40.6243 31.9283 42.6558C31.2744 44.9196 31.3933 47.1252 31.9283 48.5763C32.4633 50.1435 33.4739 51.0142 34.8412 51.0142C36.2084 51.0142 37.5162 49.9694 38.5268 48.4603C39.6562 46.835 40.429 44.7454 40.5479 42.4817C40.7263 40.5082 40.5479 38.0123 40.0129 35.9807L39.9535 35.6905C37.6945 34.7618 35.9706 33.1946 35.3167 31.6274C34.6628 30.0602 35.2573 28.6671 37.3973 28.0286C39.2996 27.5062 41.9152 28.3769 43.9958 30.7567C44.2335 31.0469 44.4713 31.3952 44.7091 31.6854C45.4224 31.9176 46.1358 32.0917 46.7897 32.1498C48.8703 32.5561 51.2481 32.7883 53.4476 32.8463C55.5282 32.9044 57.5493 32.9624 58.9166 32.9624H58.976C61.0566 33.0204 62.4239 34.1813 62.2455 35.5164C62.0077 35.7485 60.8783 36.5031 59.7488 37.606C58.5599 38.7668 57.3115 40.4501 56.836 42.7139C56.301 45.2098 56.4793 47.2994 57.0143 48.7505C57.6682 50.3177 58.7382 51.0723 60.1649 51.0723C61.5916 51.0723 63.1372 49.7372 64.3261 47.7057C65.515 45.6741 66.3473 42.7719 66.3473 39.5795C66.3473 35.9227 65.1584 33.6009 63.375 32.0337C62.4239 31.163 61.235 30.8148 60.1055 30.6406C58.976 30.4665 58.0843 30.5245 57.906 30.3504C57.1927 29.9441 57.6088 28.7252 60.046 27.158C61.1755 26.4034 62.9589 25.9971 64.5639 25.9971C67.3578 25.9971 69.8545 27.274 71.4596 29.4797C73.1835 31.6274 74.1346 34.6457 74.1346 38.2444C74.1346 41.7852 73.1835 45.0937 71.7568 47.9959C70.1518 50.8981 68.1901 53.2779 65.6934 54.8451C63.3155 56.3543 60.6999 57.1669 58.0249 56.7606Z" fill="white"/>
<path d="M92.6814 57.1089C88.9364 57.1089 85.8452 53.9165 82.3974 46.8931C82.3379 47.6477 82.1596 48.4023 82.1001 48.8666C81.8624 50.2597 81.5651 51.2464 81.2679 52.6395C80.5546 55.4837 79.9007 56.7026 77.8201 56.7026C75.9773 56.7026 75.3234 55.89 75.0856 53.5102C74.9072 51.0723 75.2639 47.1253 75.7989 40.6243C76.0367 37.0256 76.5717 33.3688 77.2851 29.8281C77.9984 26.4034 78.8901 23.211 79.7223 20.9473C80.6734 18.6835 81.6246 17.2324 82.5163 17.2324C83.7646 17.2324 85.3102 17.7548 86.4397 18.4514C87.6286 19.2059 88.4608 20.1927 88.4014 21.1214C88.4014 21.9921 87.153 24.9523 86.0235 29.1896C85.013 32.324 84.0024 36.0969 83.4079 39.9858C85.4291 38.883 87.0936 37.6641 88.5202 36.2129C90.4225 34.1814 91.6114 31.9177 91.7897 29.8861C91.8492 29.1315 92.6814 28.8993 93.8703 29.0735C95.0592 29.3057 96.367 29.8281 97.556 30.7568C98.6854 31.6855 99.5177 32.7883 99.5177 34.2394C99.5177 36.3871 98.2693 38.7089 96.0698 40.8565C94.7026 42.1915 93.0975 43.3524 91.0764 44.4552C91.4925 45.2098 91.9681 46.5448 92.6814 47.7057C93.3948 48.9247 94.4053 49.8534 95.5943 49.6212C96.3076 49.4471 97.2587 48.2862 98.3287 46.8931C99.3393 45.5 100.409 43.7007 101.242 42.1335C102.014 40.7985 102.965 40.7985 103.382 41.553C103.857 42.4237 104.036 44.0489 103.144 46.0805C102.252 48.112 100.885 50.8982 99.161 53.1039C97.3182 55.3095 95.2376 57.1089 92.6814 57.1089Z" fill="white"/>
<path d="M107.424 50.0851C108.375 50.0851 109.148 49.4466 109.564 48.576C109.98 47.7053 110.039 46.5444 109.742 45.6737C109.088 43.8744 107.483 42.4813 105.997 40.9141C104.511 39.3469 103.203 37.8377 103.203 35.8062C103.203 33.1362 105.284 31.0466 108.078 30.0598C110.872 29.073 114.26 29.073 116.995 30.6983C118.659 31.627 119.135 33.0201 119.075 34.4131C119.075 35.8062 118.481 37.1412 117.827 38.0119C117.173 38.9406 116.46 39.3469 116.281 38.8245C116.043 38.186 115.568 37.3153 114.914 36.6769C114.26 35.9803 113.547 35.4579 112.714 35.4579C110.991 35.4579 110.634 36.7349 111.882 37.7797C115.865 40.9721 117.589 43.8163 117.589 47.7633C117.589 49.911 116.816 52.2908 115.211 54.0321C113.547 55.8895 111.109 57.1665 107.721 57.1665C105.224 57.1665 103.263 56.1217 101.836 54.5545C100.409 52.9873 99.6365 50.8977 99.3987 48.634C99.1609 46.4283 99.577 44.2226 100.588 42.4233C101.479 40.798 102.728 40.6819 103.738 41.1463C104.689 41.6106 105.462 42.6554 105.224 43.2359C104.57 44.8031 104.511 46.4283 104.927 47.7633C105.343 49.1564 106.175 50.0851 107.424 50.0851Z" fill="white"/>
<g clip-path="url(#clip0_17_226)">
<path d="M39.811 27.7842C39.811 27.7842 41.2655 20.2647 34.4887 13.0956C28.1085 6.34067 32.6044 0 32.6044 0C32.6044 0 25.8275 7.83821 30.7862 13.6054C35.5134 19.1176 39.9101 22.7818 39.811 27.7842Z" fill="#B906FF"/>
<path d="M40.2722 32.7231C40.2722 32.7231 39.8425 28.0074 34.1896 24.4069C28.3714 20.7108 29.9582 15.4854 29.9582 15.4854C29.9582 15.4854 27.1152 22.0809 31.8425 25.2672C36.0739 28.1348 39.4788 29.7598 40.2722 32.7231Z" fill="#B906FF"/>
</g>
<defs>
<clipPath id="clip0_17_226">
<rect width="11.3058" height="32.723" fill="white" transform="translate(28.9661)"/>
</clipPath>
</defs>
</svg>
