<svg width="76" height="39" viewBox="0 0 76 39" fill="none" xmlns="http://www.w3.org/2000/svg">
<path d="M4.19269 30.4318H1.66069L3.60469 22.9318H7.31269L9.25669 30.4318H6.72469L6.44869 29.2438H4.46869L4.19269 30.4318ZM5.39269 25.2358L4.90069 27.3358H6.00469L5.52469 25.2358H5.39269ZM12.4772 23.9278V24.4318H13.1972V25.9918H12.4772V30.4318H10.0772V25.9918H9.47719V24.4318H10.0772L10.1612 23.7118C10.2732 22.7918 10.9772 22.3318 12.2732 22.3318C12.6092 22.3318 13.0492 22.3718 13.5932 22.4518L13.4612 24.0238L12.4772 23.9278ZM16.862 24.2518C18.782 24.2518 19.742 24.9118 19.742 26.2318V30.4318H18.542L17.858 29.7478C17.626 30.0198 17.31 30.2318 16.91 30.3838C16.51 30.5358 16.13 30.6118 15.77 30.6118C15.418 30.6118 15.134 30.5838 14.918 30.5278C14.702 30.4718 14.49 30.3758 14.282 30.2398C13.826 29.9518 13.598 29.4158 13.598 28.6318C13.598 27.1918 14.686 26.4718 16.862 26.4718H17.342V26.0398C17.086 26.0238 16.874 26.0158 16.706 26.0158C15.802 26.0158 15.026 26.1238 14.378 26.3398L14.09 24.6238C14.89 24.3758 15.814 24.2518 16.862 24.2518ZM16.022 28.3678V28.8598H16.514C16.866 28.8598 17.09 28.8198 17.186 28.7398C17.29 28.6598 17.342 28.5558 17.342 28.4278V27.8638H16.85C16.562 27.8638 16.35 27.8958 16.214 27.9598C16.086 28.0158 16.022 28.1518 16.022 28.3678ZM24.1866 26.2318H24.0186C23.8346 26.2318 23.6946 26.2398 23.5986 26.2558C23.5106 26.2718 23.4266 26.3238 23.3466 26.4118C23.2666 26.4918 23.2266 26.6158 23.2266 26.7838V30.4318H20.8266V24.4318H22.0266L22.5666 24.9838C23.0546 24.4958 23.6946 24.2518 24.4866 24.2518C25.2786 24.2518 25.8506 24.4158 26.2026 24.7438C26.6906 24.4158 27.2546 24.2518 27.8946 24.2518C28.5426 24.2518 29.0466 24.3758 29.4066 24.6238C29.7666 24.8638 29.9466 25.1998 29.9466 25.6318V30.4318H27.5466V26.2318H27.3786C27.2106 26.2318 27.0786 26.2398 26.9826 26.2558C26.8866 26.2718 26.7986 26.3158 26.7186 26.3878C26.6386 26.4598 26.5946 26.5678 26.5866 26.7118V30.4318H24.1866V26.2318ZM31.0688 30.4318V24.7318L33.4688 24.4318V30.4318H31.0688ZM31.2008 24.0478C31.0248 23.9118 30.9368 23.6638 30.9368 23.3038C30.9368 22.9438 31.0248 22.6918 31.2008 22.5478C31.3848 22.4038 31.7408 22.3318 32.2688 22.3318C32.8048 22.3318 33.1608 22.4038 33.3368 22.5478C33.5208 22.6918 33.6128 22.9438 33.6128 23.3038C33.6128 23.6638 33.5208 23.9118 33.3368 24.0478C33.1608 24.1838 32.8048 24.2518 32.2688 24.2518C31.7408 24.2518 31.3848 24.1838 31.2008 24.0478ZM37.5104 24.2518C39.4304 24.2518 40.3904 24.9118 40.3904 26.2318V30.4318H39.1904L38.5064 29.7478C38.2744 30.0198 37.9584 30.2318 37.5584 30.3838C37.1584 30.5358 36.7784 30.6118 36.4184 30.6118C36.0664 30.6118 35.7824 30.5838 35.5664 30.5278C35.3504 30.4718 35.1384 30.3758 34.9304 30.2398C34.4744 29.9518 34.2464 29.4158 34.2464 28.6318C34.2464 27.1918 35.3344 26.4718 37.5104 26.4718H37.9904V26.0398C37.7344 26.0238 37.5224 26.0158 37.3544 26.0158C36.4504 26.0158 35.6744 26.1238 35.0264 26.3398L34.7384 24.6238C35.5384 24.3758 36.4624 24.2518 37.5104 24.2518ZM36.6704 28.3678V28.8598H37.1624C37.5144 28.8598 37.7384 28.8198 37.8344 28.7398C37.9384 28.6598 37.9904 28.5558 37.9904 28.4278V27.8638H37.4984C37.2104 27.8638 36.9984 27.8958 36.8624 27.9598C36.7344 28.0158 36.6704 28.1518 36.6704 28.3678ZM47.7197 27.6478H45.6797V30.4318H43.2797V22.9318H48.1997L47.8997 24.8518H45.6797V25.8598H47.7197V27.6478ZM49.186 29.8318C48.69 29.3038 48.442 28.5038 48.442 27.4318C48.442 26.3598 48.69 25.5638 49.186 25.0438C49.69 24.5158 50.502 24.2518 51.622 24.2518C52.742 24.2518 53.55 24.5158 54.046 25.0438C54.55 25.5638 54.802 26.3598 54.802 27.4318C54.802 28.5038 54.55 29.3038 54.046 29.8318C53.55 30.3518 52.742 30.6118 51.622 30.6118C50.502 30.6118 49.69 30.3518 49.186 29.8318ZM51.022 26.5078V28.8598H51.394C51.682 28.8598 51.89 28.8318 52.018 28.7758C52.154 28.7118 52.222 28.5718 52.222 28.3558V26.0038H51.85C51.562 26.0038 51.35 26.0358 51.214 26.0998C51.086 26.1558 51.022 26.2918 51.022 26.5078ZM56.2642 29.8318C55.7682 29.3038 55.5202 28.5038 55.5202 27.4318C55.5202 26.3598 55.7682 25.5638 56.2642 25.0438C56.7682 24.5158 57.5802 24.2518 58.7002 24.2518C59.8202 24.2518 60.6282 24.5158 61.1242 25.0438C61.6282 25.5638 61.8802 26.3598 61.8802 27.4318C61.8802 28.5038 61.6282 29.3038 61.1242 29.8318C60.6282 30.3518 59.8202 30.6118 58.7002 30.6118C57.5802 30.6118 56.7682 30.3518 56.2642 29.8318ZM58.1002 26.5078V28.8598H58.4722C58.7602 28.8598 58.9682 28.8318 59.0962 28.7758C59.2322 28.7118 59.3002 28.5718 59.3002 28.3558V26.0038H58.9282C58.6402 26.0038 58.4282 26.0358 58.2922 26.0998C58.1642 26.1558 58.1002 26.2918 58.1002 26.5078ZM68.7783 30.4318H67.5783L67.0623 29.9278C66.7103 30.3838 66.0823 30.6118 65.1783 30.6118C64.6903 30.6118 64.2703 30.5198 63.9183 30.3358C63.5663 30.1518 63.2983 29.8998 63.1143 29.5798C62.7703 28.9798 62.5983 28.2638 62.5983 27.4318C62.5983 26.4158 62.8223 25.6478 63.2703 25.1278C63.4383 24.9278 63.6703 24.7638 63.9663 24.6358C64.2623 24.4998 64.6063 24.4318 64.9983 24.4318H66.3783V22.6318L68.7783 22.4518V30.4318ZM65.1783 26.5078V28.8598H65.5503C65.8223 28.8598 66.0223 28.8358 66.1503 28.7878C66.2863 28.7318 66.3623 28.6118 66.3783 28.4278V26.0038H66.0063C65.7183 26.0038 65.5063 26.0358 65.3703 26.0998C65.2423 26.1558 65.1783 26.2918 65.1783 26.5078ZM70.539 24.6718C71.059 24.3918 71.767 24.2518 72.663 24.2518C73.559 24.2518 74.383 24.3758 75.135 24.6238L74.859 26.2558C74.235 26.0798 73.611 25.9918 72.987 25.9918C72.795 25.9918 72.523 26.0078 72.171 26.0398V26.4238C73.467 26.4238 74.347 26.6158 74.811 26.9998C75.043 27.1918 75.207 27.4038 75.303 27.6358C75.399 27.8598 75.447 28.1358 75.447 28.4638C75.447 28.7838 75.407 29.0718 75.327 29.3278C75.255 29.5838 75.139 29.7878 74.979 29.9398C74.827 30.0918 74.667 30.2158 74.499 30.3118C74.331 30.4078 74.111 30.4758 73.839 30.5158C73.415 30.5798 72.923 30.6118 72.363 30.6118C71.371 30.6118 70.475 30.4958 69.675 30.2638L69.975 28.5598C70.647 28.7678 71.375 28.8718 72.159 28.8718C72.519 28.8718 72.847 28.8558 73.143 28.8238V28.4398C71.863 28.4398 70.979 28.2718 70.491 27.9358C70.011 27.5998 69.771 27.0438 69.771 26.2678C69.771 25.4838 70.027 24.9518 70.539 24.6718Z" fill="white"/>
<path d="M16.336 36.4318V33.6678H17.348C17.5507 33.6678 17.7173 33.7011 17.848 33.7678C17.9787 33.8318 18.076 33.9304 18.14 34.0638C18.204 34.1944 18.236 34.3611 18.236 34.5638C18.236 34.7638 18.204 34.9344 18.14 35.0758C18.076 35.2144 17.9787 35.3211 17.848 35.3958C17.7173 35.4678 17.5507 35.5038 17.348 35.5038H16.656V36.4318H16.336ZM16.656 35.2238H17.348C17.5453 35.2238 17.688 35.1664 17.776 35.0518C17.864 34.9371 17.908 34.7744 17.908 34.5638C17.908 34.3504 17.864 34.1944 17.776 34.0958C17.688 33.9971 17.5453 33.9478 17.348 33.9478H16.656V35.2238ZM18.7032 36.4318V33.6678H19.7312C19.9259 33.6678 20.0885 33.6971 20.2192 33.7558C20.3525 33.8144 20.4525 33.9064 20.5192 34.0318C20.5859 34.1544 20.6192 34.3131 20.6192 34.5078C20.6192 34.7104 20.5779 34.8811 20.4952 35.0198C20.4152 35.1584 20.2885 35.2558 20.1152 35.3118L20.6432 36.4318H20.2872L19.7992 35.3798H19.0232V36.4318H18.7032ZM19.0232 35.0998H19.7352C19.8712 35.0998 19.9792 35.0744 20.0592 35.0238C20.1419 34.9731 20.2005 34.9038 20.2352 34.8158C20.2699 34.7251 20.2872 34.6238 20.2872 34.5118C20.2872 34.3224 20.2419 34.1811 20.1512 34.0878C20.0605 33.9944 19.9205 33.9478 19.7312 33.9478H19.0232V35.0998ZM21.168 36.4318V33.6678H22.86V33.9518H21.488V34.8878H22.62V35.1678H21.488V36.1478H22.86V36.4318H21.168ZM23.379 36.4318V33.6678H23.959L24.723 35.9878L25.491 33.6678H26.071V36.4318H25.751V34.0078H25.691L24.903 36.3318H24.547L23.759 34.0078H23.699V36.4318H23.379ZM27.6863 36.4718C27.4836 36.4718 27.3103 36.4424 27.1663 36.3838C27.0223 36.3251 26.9116 36.2318 26.8343 36.1038C26.7596 35.9731 26.7223 35.8011 26.7223 35.5878V33.6678H27.0423V35.5958C27.0423 35.8064 27.0983 35.9584 27.2103 36.0518C27.3249 36.1424 27.4836 36.1878 27.6863 36.1878C27.8996 36.1878 28.0636 36.1424 28.1783 36.0518C28.2929 35.9584 28.3503 35.8064 28.3503 35.5958V33.6678H28.6703V35.5878C28.6703 35.7984 28.6316 35.9691 28.5543 36.0998C28.4796 36.2304 28.3689 36.3251 28.2223 36.3838C28.0756 36.4424 27.8969 36.4718 27.6863 36.4718ZM29.3204 36.4318V33.6678H29.6404V36.4318H29.3204ZM30.3126 36.4318V33.6678H30.8926L31.6566 35.9878L32.4246 33.6678H33.0046V36.4318H32.6846V34.0078H32.6246L31.8366 36.3318H31.4806L30.6926 34.0078H30.6326V36.4318H30.3126ZM34.3108 36.4318L35.0668 33.6678H35.7588L36.5108 36.4318H36.1908L35.9948 35.7318H34.8268L34.6308 36.4318H34.3108ZM34.8948 35.4478H35.9268L35.5148 33.9398H35.3068L34.8948 35.4478ZM36.9376 36.4318V33.6678H37.9656C38.1602 33.6678 38.3229 33.6971 38.4536 33.7558C38.5869 33.8144 38.6869 33.9064 38.7536 34.0318C38.8202 34.1544 38.8536 34.3131 38.8536 34.5078C38.8536 34.7104 38.8122 34.8811 38.7296 35.0198C38.6496 35.1584 38.5229 35.2558 38.3496 35.3118L38.8776 36.4318H38.5216L38.0336 35.3798H37.2576V36.4318H36.9376ZM37.2576 35.0998H37.9696C38.1056 35.0998 38.2136 35.0744 38.2936 35.0238C38.3762 34.9731 38.4349 34.9038 38.4696 34.8158C38.5042 34.7251 38.5216 34.6238 38.5216 34.5118C38.5216 34.3224 38.4762 34.1811 38.3856 34.0878C38.2949 33.9944 38.1549 33.9478 37.9656 33.9478H37.2576V35.0998ZM39.135 36.4318L39.891 33.6678H40.583L41.335 36.4318H41.015L40.819 35.7318H39.651L39.455 36.4318H39.135ZM39.719 35.4478H40.751L40.339 33.9398H40.131L39.719 35.4478ZM41.7618 36.4318V33.6678H42.7698C42.9511 33.6678 43.1018 33.6918 43.2218 33.7398C43.3444 33.7878 43.4364 33.8638 43.4978 33.9678C43.5618 34.0718 43.5938 34.2064 43.5938 34.3718C43.5938 34.4891 43.5791 34.5891 43.5498 34.6718C43.5231 34.7518 43.4844 34.8184 43.4338 34.8718C43.3831 34.9251 43.3204 34.9704 43.2458 35.0078C43.3258 35.0344 43.3978 35.0731 43.4618 35.1238C43.5284 35.1744 43.5804 35.2424 43.6178 35.3278C43.6578 35.4131 43.6778 35.5224 43.6778 35.6558C43.6778 35.7998 43.6578 35.9224 43.6178 36.0238C43.5778 36.1224 43.5191 36.2024 43.4418 36.2638C43.3671 36.3224 43.2764 36.3651 43.1698 36.3918C43.0658 36.4184 42.9484 36.4318 42.8178 36.4318H41.7618ZM42.0818 36.1518H42.8058C42.9178 36.1518 43.0138 36.1371 43.0938 36.1078C43.1764 36.0784 43.2404 36.0278 43.2858 35.9558C43.3311 35.8811 43.3538 35.7771 43.3538 35.6438C43.3538 35.5398 43.3338 35.4558 43.2938 35.3918C43.2564 35.3278 43.2084 35.2798 43.1498 35.2478C43.0911 35.2158 43.0298 35.1944 42.9658 35.1838C42.9018 35.1731 42.8431 35.1678 42.7898 35.1678H42.0818V36.1518ZM42.0818 34.8878H42.7858C42.9004 34.8878 42.9924 34.8704 43.0618 34.8358C43.1338 34.7984 43.1858 34.7438 43.2178 34.6718C43.2524 34.5998 43.2698 34.5091 43.2698 34.3998C43.2698 34.2424 43.2271 34.1278 43.1418 34.0558C43.0591 33.9838 42.9311 33.9478 42.7578 33.9478H42.0818V34.8878ZM44.2227 36.4318V33.6678H44.5427V36.4318H44.2227ZM44.9709 36.4318L45.7269 33.6678H46.4189L47.1709 36.4318H46.8509L46.6549 35.7318H45.4869L45.2909 36.4318H44.9709ZM45.5549 35.4478H46.5869L46.1749 33.9398H45.9669L45.5549 35.4478ZM47.5977 36.4318V33.6678H48.1937L49.2337 36.1478H49.3137V33.6678H49.6337V36.4318H49.0497L47.9937 33.9518H47.9177V36.4318H47.5977ZM51.1837 36.4318V33.6678H52.8437V33.9518H51.5037V35.0158H52.6357V35.2998H51.5037V36.4318H51.1837ZM54.238 36.4718C53.95 36.4718 53.726 36.4184 53.566 36.3118C53.4086 36.2051 53.298 36.0478 53.234 35.8398C53.1726 35.6291 53.142 35.3704 53.142 35.0638C53.142 34.7571 53.174 34.4971 53.238 34.2838C53.302 34.0704 53.4126 33.9078 53.57 33.7958C53.73 33.6811 53.9526 33.6238 54.238 33.6238C54.5233 33.6238 54.7446 33.6798 54.902 33.7918C55.062 33.9038 55.174 34.0678 55.238 34.2838C55.302 34.4971 55.334 34.7571 55.334 35.0638C55.334 35.3784 55.302 35.6411 55.238 35.8518C55.1766 36.0598 55.066 36.2158 54.906 36.3198C54.7486 36.4211 54.526 36.4718 54.238 36.4718ZM54.238 36.1878C54.4486 36.1878 54.6086 36.1478 54.718 36.0678C54.8273 35.9878 54.902 35.8651 54.942 35.6998C54.982 35.5318 55.002 35.3198 55.002 35.0638C55.002 34.8158 54.9806 34.6064 54.938 34.4358C54.898 34.2624 54.8233 34.1318 54.714 34.0438C54.6046 33.9531 54.446 33.9078 54.238 33.9078C54.03 33.9078 53.8713 33.9531 53.762 34.0438C53.6526 34.1318 53.5766 34.2611 53.534 34.4318C53.494 34.6024 53.474 34.8131 53.474 35.0638C53.474 35.3118 53.494 35.5198 53.534 35.6878C53.574 35.8531 53.6486 35.9784 53.758 36.0638C53.8673 36.1464 54.0273 36.1878 54.238 36.1878ZM56.8786 36.4718C56.5906 36.4718 56.3666 36.4184 56.2066 36.3118C56.0493 36.2051 55.9386 36.0478 55.8746 35.8398C55.8133 35.6291 55.7826 35.3704 55.7826 35.0638C55.7826 34.7571 55.8146 34.4971 55.8786 34.2838C55.9426 34.0704 56.0533 33.9078 56.2106 33.7958C56.3706 33.6811 56.5933 33.6238 56.8786 33.6238C57.1639 33.6238 57.3853 33.6798 57.5426 33.7918C57.7026 33.9038 57.8146 34.0678 57.8786 34.2838C57.9426 34.4971 57.9746 34.7571 57.9746 35.0638C57.9746 35.3784 57.9426 35.6411 57.8786 35.8518C57.8173 36.0598 57.7066 36.2158 57.5466 36.3198C57.3893 36.4211 57.1666 36.4718 56.8786 36.4718ZM56.8786 36.1878C57.0893 36.1878 57.2493 36.1478 57.3586 36.0678C57.4679 35.9878 57.5426 35.8651 57.5826 35.6998C57.6226 35.5318 57.6426 35.3198 57.6426 35.0638C57.6426 34.8158 57.6213 34.6064 57.5786 34.4358C57.5386 34.2624 57.4639 34.1318 57.3546 34.0438C57.2453 33.9531 57.0866 33.9078 56.8786 33.9078C56.6706 33.9078 56.5119 33.9531 56.4026 34.0438C56.2933 34.1318 56.2173 34.2611 56.1746 34.4318C56.1346 34.6024 56.1146 34.8131 56.1146 35.0638C56.1146 35.3118 56.1346 35.5198 56.1746 35.6878C56.2146 35.8531 56.2893 35.9784 56.3986 36.0638C56.5079 36.1464 56.6679 36.1878 56.8786 36.1878ZM58.5352 36.4318V33.6678H59.5232C59.7259 33.6678 59.8939 33.7011 60.0272 33.7678C60.1606 33.8318 60.2659 33.9238 60.3432 34.0438C60.4206 34.1611 60.4752 34.3024 60.5072 34.4678C60.5392 34.6304 60.5552 34.8104 60.5552 35.0078C60.5552 35.2078 60.5392 35.3944 60.5072 35.5678C60.4779 35.7384 60.4246 35.8891 60.3472 36.0198C60.2699 36.1504 60.1646 36.2518 60.0312 36.3238C59.8979 36.3958 59.7286 36.4318 59.5232 36.4318H58.5352ZM58.8552 36.1478H59.5232C59.6672 36.1478 59.7846 36.1171 59.8752 36.0558C59.9659 35.9944 60.0366 35.9104 60.0872 35.8038C60.1379 35.6971 60.1726 35.5758 60.1912 35.4398C60.2126 35.3038 60.2232 35.1598 60.2232 35.0078C60.2232 34.8584 60.2126 34.7198 60.1912 34.5918C60.1726 34.4638 60.1379 34.3518 60.0872 34.2558C60.0366 34.1598 59.9659 34.0851 59.8752 34.0318C59.7846 33.9784 59.6672 33.9518 59.5232 33.9518H58.8552V36.1478Z" fill="white"/>
<path d="M31.3096 0.472985C30.198 0.746107 29.3582 1.72522 29.0741 3.06507C28.9753 3.54947 28.9753 4.3946 29.0741 4.87901C29.3294 6.0694 30.0087 6.96607 30.9556 7.35771C31.2438 7.47624 31.3549 7.4917 31.8202 7.4917C32.2854 7.4917 32.3965 7.47624 32.6765 7.36287C33.0676 7.19796 33.4834 6.89392 33.7469 6.57442C34.2657 5.95088 34.2904 5.01814 33.8004 4.40491C33.3517 3.84836 32.7218 3.81744 32.1866 4.33792C31.9313 4.58012 31.7666 4.65226 31.5896 4.59042C31.3796 4.51313 31.2602 4.38945 31.1779 4.14725C31.1079 3.95658 31.1038 3.88958 31.1408 3.70407C31.2355 3.26604 31.8284 2.74556 32.4583 2.54974C33.3187 2.27662 34.3933 2.78679 34.8914 3.70922L35.0314 3.96688H38.5103H41.9892L42.1291 3.70922C42.6273 2.78679 43.7018 2.27662 44.5623 2.54974C45.1716 2.74041 45.785 3.26604 45.8715 3.67315C45.958 4.05964 45.7645 4.4719 45.4557 4.58012C45.2498 4.65226 45.0975 4.59042 44.834 4.33792C44.5705 4.08541 44.3317 3.97204 44.0518 3.97204C43.6195 3.97204 43.2325 4.25546 43.0102 4.72956C42.9237 4.91508 42.899 5.05422 42.8826 5.36341C42.8661 5.71383 42.8784 5.80144 42.969 6.04879C43.1625 6.57442 43.7101 7.10005 44.3441 7.36287C44.6241 7.47624 44.7352 7.4917 45.2004 7.4917C45.6698 7.4917 45.7768 7.47624 46.065 7.35771C46.9213 7.00214 47.543 6.25492 47.8683 5.1882C47.9918 4.78625 48 4.73987 48 3.97204C48 3.2042 47.9918 3.15782 47.8683 2.75587C47.543 1.6943 46.9296 0.952237 46.065 0.581203L45.7356 0.442066L38.6132 0.431759C34.6568 0.431759 31.4085 0.447219 31.3096 0.472985Z" fill="#E6B2FB"/>
<path d="M35.3814 5.83751C35.2455 6.71356 34.7967 7.52262 34.138 8.08948L33.9404 8.25438V13.5983C33.9404 18.7464 33.9445 18.9474 34.0186 19.0916C34.1915 19.4163 34.2451 19.4318 35.1879 19.4318H36.0401V12.4749V5.51801H35.7354H35.4349L35.3814 5.83751Z" fill="#E6B2FB"/>
<path d="M37.234 12.4749V19.4318H38.5103H39.7866V12.4749V5.51801H38.5103H37.234V12.4749Z" fill="#E6B2FB"/>
<path d="M40.9805 12.4749V19.4318H41.8368C42.7755 19.4318 42.829 19.4163 43.002 19.0916C43.0761 18.9474 43.0802 18.7464 43.0802 13.5983V8.25954L42.8249 8.02764C42.1785 7.44532 41.771 6.69295 41.6392 5.83751L41.5857 5.51801H41.2852H40.9805V12.4749Z" fill="#E6B2FB"/>
</svg>
