<svg width="40" height="41" viewBox="0 0 40 41" fill="none" xmlns="http://www.w3.org/2000/svg">
<rect x="0.5" y="0.698242" width="39" height="39" rx="7.5" stroke="white"/>
<path d="M20 24.1982C21.0609 24.1982 22.0783 23.7768 22.8284 23.0267C23.5786 22.2765 24 21.2591 24 20.1982C24 19.1374 23.5786 18.12 22.8284 17.3698C22.0783 16.6197 21.0609 16.1982 20 16.1982C18.9391 16.1982 17.9217 16.6197 17.1716 17.3698C16.4214 18.12 16 19.1374 16 20.1982C16 21.2591 16.4214 22.2765 17.1716 23.0267C17.9217 23.7768 18.9391 24.1982 20 24.1982V24.1982Z" stroke="white" stroke-width="1.5" stroke-linecap="round" stroke-linejoin="round"/>
<path d="M11 24.1982V16.1982C11 14.8722 11.5268 13.6004 12.4645 12.6627C13.4021 11.725 14.6739 11.1982 16 11.1982H24C25.3261 11.1982 26.5979 11.725 27.5355 12.6627C28.4732 13.6004 29 14.8722 29 16.1982V24.1982C29 25.5243 28.4732 26.7961 27.5355 27.7338C26.5979 28.6715 25.3261 29.1982 24 29.1982H16C14.6739 29.1982 13.4021 28.6715 12.4645 27.7338C11.5268 26.7961 11 25.5243 11 24.1982Z" stroke="white" stroke-width="1.5"/>
<path d="M25.5 14.7083L25.51 14.6973" stroke="white" stroke-width="1.5" stroke-linecap="round" stroke-linejoin="round"/>
</svg>
