<svg width="40" height="41" viewBox="0 0 40 41" fill="none" xmlns="http://www.w3.org/2000/svg">
<rect x="0.5" y="0.698242" width="39" height="39" rx="7.5" stroke="white"/>
<path d="M31 11.2083C31 11.2083 28.982 12.4003 27.86 12.7383C27.2577 12.0458 26.4573 11.555 25.567 11.3322C24.6767 11.1095 23.7395 11.1655 22.8821 11.4928C22.0247 11.82 21.2884 12.4027 20.773 13.162C20.2575 13.9213 19.9877 14.8206 20 15.7383V16.7383C18.2426 16.7839 16.5013 16.3941 14.931 15.6037C13.3607 14.8134 12.0103 13.6469 11 12.2083C11 12.2083 7 21.2083 16 25.2083C13.9405 26.6063 11.4872 27.3072 9 27.2083C18 32.2083 29 27.2083 29 15.7083C29 15.4303 28.972 15.1523 28.92 14.8783C29.94 13.8723 31 11.2083 31 11.2083Z" stroke="white" stroke-width="1.5" stroke-linecap="round" stroke-linejoin="round"/>
</svg>
