<svg width="40" height="41" viewBox="0 0 40 41" fill="none" xmlns="http://www.w3.org/2000/svg">
<rect x="0.5" y="0.698242" width="39" height="39" rx="7.5" fill="white"/>
<rect x="0.5" y="0.698242" width="39" height="39" rx="7.5" stroke="white"/>
<path d="M22 20.1982L18.5 22.1982V18.1982L22 20.1982Z" fill="#800AAE" stroke="#800AAE" stroke-width="1.5" stroke-linecap="round" stroke-linejoin="round"/>
<path d="M10 20.9051V19.4901C10 16.5951 10 15.1471 10.905 14.2161C11.811 13.2841 13.237 13.2441 16.088 13.1631C17.438 13.1251 18.818 13.0981 20 13.0981C21.181 13.0981 22.561 13.1251 23.912 13.1631C26.763 13.2441 28.189 13.2841 29.094 14.2161C30 15.1471 30 16.5961 30 19.4901V20.9051C30 23.8011 30 25.2481 29.095 26.1801C28.189 27.1111 26.764 27.1521 23.912 27.2321C22.562 27.2711 21.182 27.2981 20 27.2981C18.6958 27.2942 17.3916 27.2722 16.088 27.2321C13.237 27.1521 11.811 27.1121 10.905 26.1801C10 25.2481 10 23.8001 10 20.9061V20.9051Z" stroke="#800AAE" stroke-width="1.5"/>
</svg>
