<svg width="56" height="56" viewBox="0 0 56 56" fill="none" xmlns="http://www.w3.org/2000/svg">
<path d="M21.8651 23.5158C20.5439 24.4585 19.7057 25.4021 19.3509 26.2458C18.9841 26.9966 18.7892 27.7759 18.7659 28.7839H27.44V26.4319H21.9088C22.0659 26.2079 22.2593 25.9706 22.4894 25.7726C22.7191 25.5749 23.1463 25.2699 23.7701 24.8275L24.7672 24.128C25.607 23.5344 26.2106 22.9999 26.5778 22.5166C27.1376 21.7892 27.4176 20.9589 27.4176 20.0218C27.4176 18.7996 27.0213 17.8183 26.2291 17.0763C25.4368 16.3342 24.3706 15.9636 23.0306 15.9636C21.3352 15.9636 20.1554 16.609 19.4912 17.8719C19.1417 18.5354 18.9465 19.3758 18.9058 20.4958H21.324C21.353 19.8238 21.4462 19.2544 21.6032 18.9284C21.8768 18.3639 22.3918 18.0748 23.1485 18.0748C23.7013 18.0748 24.1264 18.2491 24.4231 18.6039C24.72 18.9591 24.8682 19.4026 24.8682 19.9379C24.8682 20.5957 24.6092 21.2002 24.0913 21.753C23.7536 22.1083 23.0117 22.695 21.8651 23.5158ZM37.52 24.0799H36.064V16.1279H33.2752L28.672 23.7864V25.8719H33.6V28.7839H36.064V25.8719H37.52V24.0799ZM33.6 24.0799H30.4735L33.6 18.561V24.0799Z" fill="#800AAE"/>
<path d="M19.152 33.152H17.36V31.248H16.128V36.288H17.36V33.936H19.152V36.288H20.16V31.248H19.152V33.152Z" fill="#800AAE"/>
<path d="M23.4039 31.1611C22.695 31.1611 22.1534 31.3541 21.7789 31.7399C21.2763 32.1951 21.0252 32.877 21.0252 33.7855C21.0252 34.6758 21.2763 35.3578 21.7789 35.8311C22.1534 36.2168 22.695 36.4097 23.4039 36.4097C24.1126 36.4097 24.6541 36.2168 25.0289 35.8311C25.5291 35.3579 25.779 34.6759 25.779 33.7855C25.779 32.877 25.5291 32.1952 25.0289 31.7399C24.6541 31.3541 24.1125 31.1611 23.4039 31.1611ZM24.3811 35.0773C24.1399 35.3801 23.8142 35.5315 23.4038 35.5315C22.9933 35.5315 22.6658 35.3801 22.4214 35.0773C22.1769 34.7745 22.0546 34.3438 22.0546 33.7854C22.0546 33.2269 22.1769 32.7962 22.4214 32.4934C22.6659 32.1906 22.9934 32.0392 23.4038 32.0392C23.8141 32.0392 24.1399 32.1912 24.3811 32.4952C24.6222 32.7991 24.7427 33.2291 24.7427 33.7854C24.7427 34.3438 24.6222 34.7745 24.3811 35.0773ZM29.568 34.3582C29.568 34.6989 29.4921 34.9476 29.4117 35.1044C29.2864 35.3823 28.997 35.5213 28.5792 35.5213C28.159 35.5213 27.8981 35.3823 27.773 35.1044C27.6925 34.9476 27.664 34.6989 27.664 34.3582V31.2479H26.544V34.3607C26.544 34.8878 26.6384 35.2982 26.8019 35.5921C27.1087 36.1303 27.6973 36.3995 28.5549 36.3995C29.4124 36.3995 29.9538 36.1303 30.2584 35.5921C30.4219 35.2983 30.464 34.8878 30.464 34.3607V31.2479H29.568V34.3582ZM35.422 35.8645C35.4038 35.7837 35.392 35.6302 35.392 35.4036V35.0705C35.392 34.7228 35.3438 34.4645 35.2485 34.295C35.1531 34.1257 34.9909 33.9951 34.7621 33.9031C35.0357 33.8088 35.2317 33.648 35.3508 33.4203C35.4696 33.1926 35.5291 32.9611 35.5291 32.7255C35.5291 32.5303 35.4984 32.3566 35.4371 32.2041C35.3759 32.0515 35.2928 31.9124 35.1878 31.7869C35.0609 31.6343 34.9062 31.4867 34.7236 31.4081C34.541 31.3296 34.2802 31.2479 33.9412 31.2479H31.472V36.2879H32.592V34.2719H33.5938C33.8822 34.2719 34.0791 34.3521 34.1841 34.4575C34.2891 34.563 34.3438 34.7876 34.3479 35.1039L34.3548 35.5717C34.357 35.7174 34.3716 35.8714 34.3985 36.0105C34.4119 36.0777 34.4344 36.1759 34.4657 36.2879H35.616V36.147C35.504 36.0866 35.4494 35.9924 35.422 35.8645ZM34.1953 33.4721C34.0845 33.5261 33.9184 33.5999 33.6969 33.5999H32.592V32.1439H33.7257C33.9387 32.1439 34.0984 32.1881 34.2049 32.2463C34.3944 32.3496 34.4893 32.5823 34.4893 32.8829C34.4893 33.1611 34.3914 33.3781 34.1953 33.4721ZM39.9469 33.8088C39.7565 33.6586 39.4706 33.5386 39.0892 33.4488L38.219 33.2437C37.8831 33.1651 37.6637 33.0968 37.5602 33.0385C37.3993 32.951 37.3186 32.8187 37.3186 32.6414C37.3186 32.4486 37.4003 32.2983 37.5635 32.1906C37.7268 32.0829 37.9452 32.0291 38.2189 32.0291C38.4648 32.0291 38.6707 32.0839 38.8362 32.1669C39.0845 32.2926 39.2179 32.4799 39.2363 32.8159H40.2322C40.2141 32.2559 40.0183 31.8736 39.6446 31.5965C39.2711 31.3196 38.8199 31.1745 38.2909 31.1745C37.6573 31.1745 37.1772 31.318 36.8502 31.6118C36.5233 31.9058 36.3598 32.273 36.3598 32.7171C36.3598 33.2039 36.5269 33.5607 36.8612 33.7895C37.0586 33.9264 37.421 34.0527 37.9487 34.1693L38.4857 34.2868C38.7998 34.354 39.0293 34.4313 39.1741 34.5189C39.3187 34.6086 39.3913 34.7353 39.3913 34.899C39.3913 35.1794 39.2435 35.3711 38.9481 35.4743C38.7924 35.528 38.5897 35.5549 38.3401 35.5549C37.9232 35.5549 37.629 35.4424 37.4572 35.2383C37.3633 35.126 37.3004 34.9438 37.2682 34.7198H36.2792C36.2792 35.2798 36.4662 35.6517 36.8402 35.9464C37.2142 36.2416 37.7278 36.3941 38.3807 36.3941C39.0199 36.3941 39.5147 36.2469 39.865 35.9476C40.2152 35.6481 40.3905 35.2732 40.3905 34.8202C40.3905 34.3784 40.2426 34.0422 39.9469 33.8088Z" fill="#800AAE"/>
<path d="M8.8916 36.8197C7.04214 36.8197 5.54291 35.3204 5.54291 33.471V26.2034C5.54291 24.354 7.04214 22.8547 8.8916 22.8547C10.7411 22.8547 12.2403 24.354 12.2403 26.2034V33.471C12.2403 35.3203 10.7411 36.8197 8.8916 36.8197ZM47.264 36.8197C45.4146 36.8197 43.9153 35.3204 43.9153 33.471V26.2034C43.9153 24.354 45.4146 22.8547 47.264 22.8547C49.1135 22.8547 50.6127 24.354 50.6127 26.2034V33.471C50.6127 35.3203 49.1135 36.8197 47.264 36.8197Z" stroke="#800AAE" stroke-width="2" stroke-miterlimit="10" stroke-linecap="round" stroke-linejoin="round"/>
<path d="M45.6257 36.3911V39.1927C45.6257 46.4449 39.7466 52.3239 32.4945 52.3239H28.0805M10.5603 23.1885V20.6862C10.5603 11.0032 18.4099 3.15356 28.0929 3.15356C37.7759 3.15356 45.6255 11.0032 45.6255 20.6862V23.283" stroke="#800AAE" stroke-width="2" stroke-miterlimit="10" stroke-linecap="round" stroke-linejoin="round"/>
<path d="M29.7314 49.3589H26.1675C25.3486 49.3589 24.6849 50.0226 24.6849 50.8414C24.6849 51.6603 25.3486 52.324 26.1675 52.324H29.7314C30.5503 52.324 31.214 51.6603 31.214 50.8414C31.214 50.0226 30.5503 49.3589 29.7314 49.3589Z" stroke="#800AAE" stroke-width="2" stroke-miterlimit="10" stroke-linecap="round" stroke-linejoin="round"/>
</svg>
