<svg width="56" height="56" viewBox="0 0 56 56" fill="none" xmlns="http://www.w3.org/2000/svg">
<g clip-path="url(#clip0_13_156)">
<path d="M33.3247 35.9601C33.3247 36.1777 33.4111 36.3863 33.565 36.5401C33.7188 36.694 33.9275 36.7804 34.145 36.7804H36.5578C36.4086 37.0631 36.1851 37.2998 35.9113 37.4649C35.6376 37.6301 35.3241 37.7175 35.0044 37.7179H34.145C33.9844 37.7179 33.8273 37.765 33.6932 37.8535C33.5591 37.942 33.454 38.0679 33.3908 38.2156C33.3276 38.3633 33.3092 38.5262 33.3378 38.6843C33.3664 38.8424 33.4408 38.9886 33.5518 39.1047L36.9892 42.7038C37.0636 42.7817 37.1526 42.8442 37.2512 42.8877C37.3497 42.9312 37.4559 42.9549 37.5636 42.9574C37.6713 42.9599 37.7784 42.9411 37.8789 42.9022C37.9793 42.8633 38.0711 42.8049 38.149 42.7305C38.2269 42.6561 38.2894 42.5671 38.3329 42.4686C38.3764 42.37 38.4001 42.2638 38.4026 42.1561C38.4051 42.0484 38.3863 41.9413 38.3474 41.8409C38.3085 41.7404 38.2501 41.6486 38.1757 41.5707L35.9382 39.228C36.512 39.0626 37.0322 38.7495 37.447 38.32C37.8618 37.8904 38.1565 37.3596 38.3018 36.7804H38.8717C39.0892 36.7804 39.2979 36.694 39.4517 36.5401C39.6056 36.3863 39.692 36.1777 39.692 35.9601C39.692 35.7425 39.6056 35.5339 39.4517 35.3801C39.2979 35.2262 39.0892 35.1398 38.8717 35.1398H38.3022C38.22 34.8094 38.0885 34.4934 37.9119 34.2023H38.8716C39.0891 34.2023 39.2978 34.1159 39.4516 33.9621C39.6055 33.8082 39.6919 33.5996 39.6919 33.382C39.6919 33.1645 39.6055 32.9558 39.4516 32.802C39.2978 32.6481 39.0891 32.5617 38.8716 32.5617H34.145C33.9275 32.5617 33.7188 32.6481 33.565 32.802C33.4111 32.9558 33.3247 33.1645 33.3247 33.382C33.3247 33.5996 33.4111 33.8082 33.565 33.9621C33.7188 34.1159 33.9275 34.2023 34.145 34.2023H35.0044C35.3241 34.2026 35.6376 34.2901 35.9113 34.4552C36.185 34.6204 36.4086 34.857 36.5578 35.1397H34.145C33.9275 35.1397 33.7188 35.2261 33.565 35.3799C33.4111 35.5338 33.3247 35.7424 33.3247 35.96V35.9601ZM51.8985 25.7864H31.2395L30.5981 19.4626C30.4924 18.4491 30.1921 17.4654 29.7138 16.5656L29.3566 15.8934L29.3433 15.8673C29.3416 15.8638 29.3398 15.8603 29.338 15.8569L26.3384 9.92414C26.0993 9.4512 25.7387 9.05045 25.2934 8.7631C24.8481 8.47576 24.3344 8.31219 23.8049 8.28921C23.7746 8.28797 23.7442 8.28833 23.7138 8.2903L22.4312 8.37736C18.5878 8.63819 14.7445 8.89868 10.9013 9.15885L9.1919 9.27533C8.90966 9.26646 8.62758 9.25308 8.34577 9.23519C8.14529 9.22239 7.94076 9.20664 7.72594 9.18794C7.68615 8.816 7.53153 8.46568 7.28355 8.18563C7.03556 7.90558 6.70653 7.7097 6.34213 7.62519L1.01961 6.29191C0.808567 6.23906 0.585167 6.27221 0.398561 6.38407C0.211955 6.49593 0.0774287 6.67734 0.024576 6.88839C-0.0282767 7.09943 0.00487389 7.32283 0.116735 7.50944C0.228596 7.69605 0.410004 7.83057 0.621053 7.88343L5.95112 9.21868L5.96916 9.22294C6.01157 9.23259 6.04841 9.25868 6.0716 9.29546C6.09479 9.33225 6.10244 9.37674 6.09286 9.41916L3.43801 21.1317C3.43327 21.1527 3.42443 21.1726 3.41199 21.1902C3.39956 21.2078 3.38378 21.2228 3.36555 21.2342C3.34733 21.2457 3.32702 21.2535 3.30578 21.2571C3.28454 21.2608 3.26279 21.2602 3.24179 21.2554L1.00179 20.7476C0.896719 20.7237 0.787988 20.7209 0.681802 20.739C0.575616 20.7572 0.474054 20.7962 0.382916 20.8536C0.291777 20.9111 0.212847 20.9859 0.150631 21.0739C0.0884149 21.1618 0.0441319 21.2612 0.0203103 21.3662C-0.00351123 21.4713 -0.00640493 21.58 0.0117945 21.6862C0.0299939 21.7924 0.06893 21.894 0.12638 21.9851C0.183829 22.0763 0.258668 22.1552 0.346622 22.2174C0.434575 22.2796 0.533922 22.3239 0.63899 22.3477L2.8791 22.8554C3.01112 22.8855 3.14609 22.9007 3.28149 22.9007C3.6902 22.8996 4.08645 22.7599 4.4055 22.5045C4.72456 22.249 4.94755 21.8929 5.03805 21.4944L5.05118 21.4364L6.62826 22.5261C7.0219 22.7982 7.45149 23.0141 7.90466 23.1677L10.102 23.9169C9.78486 24.1324 9.53039 24.4281 9.36446 24.7737C9.19852 25.1194 9.12702 25.5029 9.15722 25.8851C9.15832 25.9067 9.16018 25.9283 9.16291 25.9504C9.21374 26.4904 9.46423 26.992 9.86537 27.3571C10.2665 27.7222 10.7894 27.9244 11.3318 27.9243C11.3573 27.9243 11.3832 27.9239 11.4089 27.923C11.8878 27.9064 12.3668 27.8896 12.8459 27.8727C12.6501 28.2806 12.5791 28.7372 12.642 29.1852C12.705 29.6333 12.8989 30.0527 13.1995 30.3909C13.5001 30.729 13.8939 30.9708 14.3315 31.0858C14.7691 31.2008 15.2309 31.1838 15.6589 31.0371L17.0166 30.5727V45.6315C17.0178 46.7189 17.4503 47.7614 18.2192 48.5304C18.9882 49.2993 20.0307 49.7318 21.1181 49.733H51.8985C52.9859 49.7318 54.0284 49.2993 54.7974 48.5304C55.5663 47.7614 55.9988 46.7189 56 45.6315V29.8879C55.9988 28.8005 55.5663 27.758 54.7974 26.989C54.0284 26.2201 52.9859 25.7876 51.8985 25.7864ZM11.3521 26.2834C11.2139 26.2878 11.0792 26.2392 10.9758 26.1475C10.8723 26.0558 10.8079 25.9279 10.7958 25.7902C10.7952 25.7839 10.7946 25.7776 10.7938 25.7713L10.7935 25.7656C10.7821 25.638 10.8165 25.5106 10.8906 25.4062C10.9647 25.3017 11.0736 25.2271 11.1977 25.1957C11.3472 25.158 11.6201 25.0717 12.0519 24.9342C12.229 24.8778 12.4324 24.8129 12.589 24.7647L15.4109 25.7268L14.7802 26.1636C13.637 26.2041 12.4944 26.244 11.3521 26.2834ZM17.167 28.7874L15.126 29.4854C15.0398 29.5148 14.9485 29.5259 14.8577 29.5179C14.767 29.51 14.6789 29.4833 14.5991 29.4395C14.5193 29.3956 14.4495 29.3356 14.3941 29.2633C14.3388 29.191 14.2991 29.108 14.2776 29.0195C14.2465 28.8879 14.2563 28.75 14.3058 28.6241C14.3553 28.4983 14.4422 28.3907 14.5547 28.3157L15.4147 27.7199C15.5007 27.6801 15.5791 27.6257 15.6466 27.5591L17.1857 26.4929L18.1608 27.0481C17.6903 27.5364 17.3487 28.1341 17.167 28.7874ZM17.2244 24.6272C17.1795 24.6016 17.1322 24.5803 17.0833 24.5637L12.8905 23.1341L12.8786 23.1301L8.43196 21.6141C8.12254 21.5093 7.82923 21.3618 7.56046 21.1761L5.65952 19.8625C5.59004 19.8145 5.51356 19.7776 5.43279 19.7529L7.46016 10.8093C7.47635 10.8117 7.49243 10.8148 7.50905 10.8162C8.06593 10.8662 8.62417 10.8996 9.18304 10.9164C9.20808 10.9172 9.2339 10.9168 9.25927 10.9151L11.0126 10.7956C14.8561 10.5358 18.6994 10.2754 22.5423 10.0143L23.774 9.9306C24.005 9.94745 24.2276 10.0238 24.4204 10.1522C24.6131 10.2806 24.7693 10.4567 24.8738 10.6634L27.8735 16.596L27.8997 16.6476C27.9024 16.6529 27.9051 16.6581 27.9078 16.6633L28.2647 17.3348C28.6439 18.0481 28.882 18.8278 28.9661 19.6312L29.5903 25.7864H27.582L27.028 21.2902C27.0134 21.1717 26.9732 21.0577 26.91 20.9564C26.8468 20.8551 26.7623 20.7688 26.6623 20.7035L25.6986 20.0747C25.6932 20.0711 25.6884 20.067 25.6829 20.0634L23.1594 18.4182C22.882 18.2375 22.5704 18.1156 22.244 18.0603C21.9176 18.0049 21.5833 18.0171 21.2618 18.0962C20.9403 18.1753 20.6384 18.3196 20.375 18.5201C20.1115 18.7206 19.8921 18.9731 19.7302 19.2619C19.5912 19.5093 19.4972 19.7794 19.4527 20.0597C19.4455 20.1009 19.4398 20.1436 19.4359 20.1848C19.4264 20.2703 19.4217 20.3562 19.4217 20.4422C19.4201 20.8083 19.5024 21.1699 19.6622 21.4993C19.822 21.8287 20.0552 22.1171 20.3438 22.3424L26.5633 27.2391L26.5655 27.2408L27.8676 28.2661C28.0055 28.3733 28.1143 28.5135 28.1839 28.6738C28.2723 28.878 28.295 29.1047 28.2487 29.3223C28.2309 29.4035 28.2036 29.4824 28.1674 29.5572C28.1656 29.5611 28.1634 29.5648 28.1618 29.5688C28.0741 29.7454 27.9387 29.8939 27.7709 29.9975C27.6031 30.101 27.4096 30.1555 27.2124 30.1547C27.029 30.1552 26.8487 30.1073 26.6896 30.016L17.2244 24.6272ZM29.2806 30.8337C29.315 30.7926 29.348 30.7508 29.3796 30.7082H48.7775C48.924 31.2606 49.2139 31.7643 49.618 32.1684C50.022 32.5725 50.5258 32.8624 51.0781 33.0088V42.5105C50.5258 42.6569 50.022 42.9468 49.618 43.3509C49.2139 43.7549 48.924 44.2587 48.7775 44.8111H24.2391C24.0926 44.2587 23.8027 43.7549 23.3986 43.3509C22.9946 42.9468 22.4908 42.6569 21.9385 42.5105V33.0088C22.4908 32.8624 22.9946 32.5725 23.3986 32.1684C23.8027 31.7643 24.0926 31.2606 24.2391 30.7082H24.5895L25.8781 31.4419C26.427 31.7542 27.0678 31.8643 27.6894 31.7532C28.3109 31.6421 28.8739 31.3167 29.2806 30.8337ZM25.7742 24.5296L21.3566 21.0516C21.2642 20.9793 21.1897 20.8867 21.1387 20.781C21.0877 20.6754 21.0616 20.5594 21.0624 20.4421C21.0623 20.4151 21.0638 20.3882 21.0668 20.3614C21.0677 20.3545 21.0682 20.3489 21.0688 20.342C21.0701 20.335 21.0712 20.328 21.0723 20.321C21.0863 20.2307 21.1165 20.1436 21.1614 20.064C21.2134 19.9711 21.2839 19.89 21.3686 19.8255C21.4533 19.7611 21.5503 19.7147 21.6536 19.6893C21.757 19.6638 21.8644 19.6599 21.9694 19.6776C22.0743 19.6954 22.1744 19.7346 22.2636 19.7926L22.9647 20.2498L22.9678 20.252L25.4463 21.8691L25.7742 24.5296ZM54.3594 45.6315C54.3586 46.2839 54.0991 46.9094 53.6378 47.3708C53.1764 47.8321 52.5509 48.0917 51.8985 48.0924H21.1181C20.4657 48.0917 19.8402 47.8321 19.3788 47.3708C18.9175 46.9094 18.658 46.2839 18.6572 45.6315V29.8879C18.6578 29.5015 18.7492 29.1206 18.9241 28.7759C19.099 28.4313 19.3524 28.1326 19.6639 27.9039L22.7384 29.6543C22.7158 29.7301 22.7042 29.8088 22.7041 29.8879C22.7036 30.3084 22.5363 30.7115 22.239 31.0088C21.9417 31.3061 21.5386 31.4734 21.1181 31.4739C20.9006 31.4739 20.6919 31.5603 20.5381 31.7141C20.3843 31.868 20.2978 32.0766 20.2978 32.2942V43.2251C20.2978 43.4427 20.3843 43.6513 20.5381 43.8052C20.6919 43.959 20.9006 44.0454 21.1181 44.0454C21.5386 44.0459 21.9417 44.2132 22.239 44.5105C22.5363 44.8078 22.7036 45.2109 22.7041 45.6314C22.7041 45.8489 22.7905 46.0576 22.9443 46.2114C23.0982 46.3652 23.3068 46.4517 23.5244 46.4517H49.4922C49.7098 46.4517 49.9184 46.3652 50.0723 46.2114C50.2261 46.0576 50.3125 45.8489 50.3125 45.6314C50.313 45.2109 50.4803 44.8078 50.7776 44.5105C51.0749 44.2132 51.478 44.0459 51.8985 44.0454C52.116 44.0454 52.3247 43.959 52.4785 43.8052C52.6323 43.6513 52.7188 43.4427 52.7188 43.2251V32.2942C52.7188 32.0766 52.6323 31.868 52.4785 31.7141C52.3247 31.5603 52.116 31.4739 51.8985 31.4739C51.478 31.4734 51.0749 31.3061 50.7776 31.0088C50.4803 30.7115 50.313 30.3084 50.3125 29.8879C50.3125 29.6704 50.2261 29.4617 50.0723 29.3079C49.9184 29.154 49.7098 29.0676 49.4922 29.0676H29.911C29.9074 28.7063 29.8314 28.3493 29.6876 28.0178C29.5952 27.8063 29.4758 27.6077 29.3323 27.427H51.8985C52.5509 27.4277 53.1764 27.6873 53.6378 28.1486C54.0991 28.61 54.3586 29.2355 54.3594 29.8879V45.6315Z" fill="#800AAE"/>
</g>
<defs>
<clipPath id="clip0_13_156">
<rect width="56" height="56" fill="white"/>
</clipPath>
</defs>
</svg>
